<svg width="33" height="29" viewBox="0 0 33 29" fill="none" xmlns="http://www.w3.org/2000/svg">
<path d="M30.8918 18.917L23.2754 16.0759L23.2544 16.0679C22.8591 15.9274 22.4295 15.8755 22.0046 15.9168C21.5797 15.9582 21.1728 16.0916 20.8208 16.3048C20.7793 16.3297 20.7396 16.3566 20.7016 16.3855L16.8399 19.3655C14.3456 18.354 11.7516 16.1763 10.5132 14.0577L13.7938 10.5308C13.8254 10.4951 13.8553 10.4595 13.8836 10.4211C14.1105 10.1072 14.2454 9.74939 14.2763 9.37961C14.3072 9.00983 14.2331 8.63951 14.0607 8.3016L14.0604 8.28474L10.5503 1.71058C10.3225 1.2692 9.93723 0.904745 9.45209 0.671621C8.96695 0.438497 8.40793 0.349208 7.85849 0.417082C5.68599 0.703552 3.70348 1.67154 2.28124 3.14024C0.859005 4.60895 0.0942951 6.47794 0.129941 8.39814C0.314165 19.554 10.841 28.4592 23.5953 28.2485C25.7907 28.2157 27.901 27.485 29.532 26.1929C31.1629 24.9007 32.203 23.1355 32.458 21.2269C32.5174 20.7445 32.397 20.259 32.1147 19.8427C31.8325 19.4264 31.4035 19.1017 30.8918 18.917ZM23.5582 26.0005C18.1068 26.0853 12.8491 24.2752 8.93877 20.9672C5.02843 17.6593 2.78477 13.1237 2.70008 8.35569C2.67138 6.98377 3.2146 5.6474 4.22828 4.59615C5.24196 3.54491 6.6568 2.85067 8.20857 2.64309C8.20803 2.64871 8.20812 2.65436 8.20885 2.65995L11.6912 9.20787L8.42831 12.7387C8.39517 12.7732 8.36515 12.8099 8.33853 12.8484C8.10216 13.1769 7.96652 13.5528 7.94476 13.9397C7.923 14.3267 8.01585 14.7115 8.21433 15.057C9.71266 17.6365 12.7547 20.1905 15.7844 21.4123C16.1886 21.5727 16.634 21.6384 17.077 21.603C17.52 21.5676 17.9454 21.4323 18.3117 21.2104C18.3525 21.1854 18.3918 21.1585 18.4293 21.1297L22.2861 18.1512L29.8848 20.9841L29.9024 20.9838C29.7195 22.3491 28.9745 23.6114 27.8068 24.5348C26.6391 25.4581 25.1287 25.9792 23.5582 26.0005Z" fill="black"/>
</svg>
